/* XPM */
static const char *sample_xpm[] = {
/* width height ncolors chars_per_pixel */
"32 31 175 2",
/* colors */
"AA c #FFFFFFFFFFFF",
"BA c #FFFFF7F7E7E7",
"CA c #FFFFEFEFCECE",
"DA c #FFFFE7E7B5B5",
"EA c #FFFFE7E7ADAD",
"FA c #FFFFDEDEADAD",
"GA c #FFFFDEDE8C8C",
"HA c #FFFFCECE9C9C",
"IA c #FFFFC6C66363",
"JA c #FFFFC6C62121",
"KA c #FFFFBDBD7373",
"LA c #FFFFB5B54A4A",
"MA c #FFFFADAD5252",
"NA c #FFFFADAD3939",
"OA c #FFFFA5A54242",
"PA c #FFFFA5A52929",
"AB c #FFFF9C9C3939",
"BB c #FFFF94944A4A",
"CB c #FFFF94942929",
"DB c #FFFF84842121",
"EB c #FFFF84841818",
"FB c #FFFF84840000",
"GB c #FFFF7B7B0000",
"HB c #FFFF73737373",
"IB c #FFFF6B6B1010",
"JB c #FFFF5A5A3939",
"KB c #FFFF52525A5A",
"LB c #FFFF52520000",
"MB c #FFFF4A4A2121",
"NB c #FFFF4A4A1818",
"OB c #FFFF39392929",
"PB c #FFFF21211818",
"AC c #FFFF18181818",
"BC c #FFFF10100000",
"CC c #FFFF00001010",
"DC c #FFFF00000000",
"EC c #F7F7EFEFF7F7",
"FC c #F7F731311010",
"GC c #F7F721212121",
"HC c #EFEFEFEFEFEF",
"IC c #EFEFBDBD8484",
"JC c #EFEFA5A51818",
"KC c #EFEF7B7B1010",
"LC c #EFEF63631818",
"MC c #EFEF4A4A4A4A",
"NC c #EFEF18181818",
"OC c #EFEF08081010",
"PC c #E7E7E7E7CECE",
"AD c #E7E7C6C68C8C",
"BD c #E7E7BDBD9C9C",
"CD c #E7E78C8C6363",
"DD c #E7E718180000",
"ED c #DEDEDEDEDEDE",
"FD c #DEDEBDBD8C8C",
"GD c #DEDEA5A56B6B",
"HD c #DEDE9C9C3131",
"ID c #DEDE8C8C3939",
"JD c #DEDE73736B6B",
"KD c #DEDE21211818",
"LD c #D6D6D6D67B7B",
"MD c #D6D65A5A4242",
"ND c #D6D642422121",
"OD c #D6D631311818",
"PD c #CECECECED6D6",
"AE c #CECECECECECE",
"BE c #CECEC6C6BDBD",
"CE c #CECEBDBD9494",
"DE c #CECE7B7B4A4A",
"EE c #CECE29292121",
"FE c #CECE29290808",
"GE c #CECE18180808",
"HE c #C6C673730808",
"IE c #C6C642424242",
"JE c #C6C631312929",
"KE c #C6C631311818",
"LE c #C6C608080808",
"ME c #BDBDBDBDB5B5",
"NE c #BDBDBDBD9C9C",
"OE c #BDBDA5A57373",
"PE c #BDBD42422121",
"AF c #BDBD29290808",
"BF c #BDBD18181818",
"CF c #B5B5BDBD7373",
"DF c #B5B5B5B5ADAD",
"EF c #B5B5ADADA5A5",
"FF c #B5B594948C8C",
"GF c #B5B552524A4A",
"HF c #B5B529291818",
"IF c #ADADA5A5A5A5",
"JF c #ADADA5A57373",
"KF c #ADAD8C8C8C8C",
"LF c #ADAD5A5A3939",
"MF c #ADAD39390000",
"NF c #A5A5ADADB5B5",
"OF c #A5A5A5A59C9C",
"PF c #A5A531311818",
"AG c #A5A508080808",
"BG c #9C9C6B6B2121",
"CG c #9C9C63633131",
"DG c #9C9C4A4A4242",
"EG c #9C9C39392929",
"FG c #9494A5A5A5A5",
"GG c #94949C9C9C9C",
"HG c #94949C9C7B7B",
"IG c #949439391010",
"JG c #949421212121",
"KG c #949421211818",
"LG c #949421210000",
"MG c #949410101010",
"NG c #8C8CA5A5A5A5",
"OG c #8C8C8C8C7373",
"PG c #8C8C84845A5A",
"AH c #8C8C6B6B5A5A",
"BH c #8C8C42420000",
"CH c #8C8C31313131",
"DH c #8C8C08080808",
"EH c #84849C9C9C9C",
"FH c #84848C8C8C8C",
"GH c #848442424242",
"HH c #848410100000",
"IH c #7B7B7B7B7B7B",
"JH c #7B7B7B7B6363",
"KH c #7B7B08080808",
"LH c #737384847B7B",
"MH c #737363636363",
"NH c #737339393131",
"OH c #737321210808",
"PH c #6B6B8C8C7373",
"AI c #6B6B73736363",
"BI c #6B6B6B6B6B6B",
"CI c #63637B7B7B7B",
"DI c #636363635A5A",
"EI c #636363634242",
"FI c #5A5A6B6B6363",
"GI c #5A5A5A5A5A5A",
"HI c #5A5A5A5A4A4A",
"II c #5A5A42424A4A",
"JI c #5A5A00000000",
"KI c #525263635A5A",
"LI c #52524A4A3131",
"MI c #525231312929",
"NI c #525229292121",
"OI c #4A4A63635252",
"PI c #4A4A5A5A4A4A",
"AJ c #4A4A4A4A4A4A",
"BJ c #4A4A4A4A3939",
"CJ c #42426B6B6B6B",
"DJ c #42426B6B4A4A",
"EJ c #424252523939",
"FJ c #39395A5A5252",
"GJ c #39394A4A4A4A",
"HJ c #393939392929",
"IJ c #393900000000",
"JJ c #31315A5A4A4A",
"KJ c #313142423939",
"LJ c #313139393939",
"MJ c #29294A4A4A4A",
"NJ c #292931313131",
"OJ c #292929293939",
"PJ c #292929292929",
"AK c #212142423939",
"BK c #181842424242",
"CK c #181842422929",
"DK c #181839394242",
"EK c #181831313939",
"FK c #101029292929",
"GK c #080818181818",
"HK c #000052524A4A",
"IK c #000042424242",
"JK c #000042423939",
"KK c #000039393131",
"LK c #000031312929",
"MK c #000029293131",
"NK c #000000001818",
"OK c #000000000000",
/* pixels */
"AAAAAAAAAAAAAAAAAAAAAAAAAAAAAAAAHCOFGAEFEDAAAAAAAAAAAAAAAAAAAAAA",
"AAAAAAAAAAAAAAAAAAAAAAAEAAAAAAIFJCJABAAAFGGGHCAAAAAAAAAAAAAAAAAA",
"AAAAAAAAAAAAAAAAAAAANEFHEDECIDGBGBHAAAFAFADFEFAAAAAAAAAAAAAAAAAA",
"AAAAAAAAHCEDAAAAAAECOIAJEDDEGBDDIJCADAEALACEAJEDAAAAAAAAAAAAAAAA",
"AAAAAAAAKBDCKFHCAAFGGKNKCGDBBBBHOKDACACAIAOEDKAEAAAAAAAAAAAAAAAA",
"AAAAAAAAOFDHLDEJAKGGPHIFGDICPAKCMFCABACAGAJFFJIFAAAAAAAAAAAAAAAA",
"AAAAAAAAEDBEAJGKOKAJFILBLBPAOAOAMAECECCAHAGGGJNFAAAAAAAAAAAAAAAA",
"AAAAAAAAGGHGNGKFDJIHGFIBEBEBNAMAFAAAECBADAFFNKMEAAAAAAAAAAAAAAAA",
"AAHCEDMENKGKMEMEACMHIBJBFBKCABCBGAECAABABEPHPJAEAAAAHCEDAEAAAAAA",
"AADFNKCFGKBJLJOFLEOHMBIBABHECBABKAAABAPCNEDFLJAEAAAAECAAAAMEEDAA",
"AAEDHJGKAHFKOKAJBIIGIBIBABBBBGHDKABABEBECDOBJGMEAABILHOFGGGIFHBA",
"AAMEPGBIMECEEIFIEDPEOBJBABOAIAFDADHCAAKBCCDCDCNCIKMJPIJHLIBJLJNF",
"HCGKGKKFPDJJKJMEHCKEFCNBLCMAKADAFAEAAADCDCACDCDCDJEKEJJHBJHJFKII",
"HCAJOEFKOGNKCKNFAECCKDFCLGMAMAFAADBKEKDCDCDCDCGCOIKKMJHJGGAAMELJ",
"EDOFKJNKHJGJEIJJCDDCBFMFIBBDNGKKMKJKOIKHDCDCACCHFJKKMKCIAAAAAABJ",
"HCAABEEIAJIFGIGKKKEEODAFIBFHDKGIDKJJOIOKOKJIIJIKIKKKOKOJBAAAGGFI",
"AAAAAEGGIFAAMEBKBJHFHHJIMFMKBKAIKKMJMJLKOKOKOKGKGKNKOKPJFKPJBJIF",
"AAAAHCDFEDECJDPGIFEGLGHHIJNJBKMJMJNKDKOIAIKKEEGEBFAGAJGGMEMEAEEC",
"AAAAAAHCAAEDCCLFAEIHKHFCMGFJJJBIFKOKKKGJFJFJNIOCLENKIHBAECECAAAA",
"AAAAAAAAAABAGGIFFGPDLIGEKFBKAIHIJJNJPIDIGIDKGKNKPJHIAEECAAAAAAAA",
"AAAAAAAAAAAAHCMENGFGKHDHMEIKMJJJEIBIHIAIKIFJDKHHDCACMCAEAAAAAAAA",
"AAAAAAAAAAAAAAAAMEKDMGFEJBNHKKGIDIGIGJPIPIJJBKJEPBOBOBJEAEAAAAAA",
"AAAAAAAAAAAAAAAANHOBOBHFNBJBOKMJPIPIEKMJMJDJPHDGPBOBGCOBIHHCAAAA",
"AAAAAAAAAAAAAAAAKGOBJEHHMBJEPJEKKKNJNKOKBKOICJGIPBGCGCACFIEDAAAA",
"AAAAAAAAAAAAAAECGFOBNDIJJBPFMIGGAAFHGKHJDKHKHKHKEEGCGCGKIHECAAAA",
"AAAAAAAAAAAAAAAAMEAJGJBIMDPENHFHCIOJIHIENCEELIKKOKGKOJBIAEAAAAAA",
"AAAAAAAAAAAAAAAAAAEDAEEDMEEGBHEHEDAEEDIEGCGCBCDCEIIHMEEDAAAAAAAA",
"AAAAAAAAAAAAAAAAAAAAAAAAECIFCJIFECAAAAFFPBPBBCHBAAFHECAAAAAAAAAA",
"AAAAAAAAAAAAAAAAAAAAAAAAAAECEDHCAAAAAAHCGHNCDCAAAAGIEDAAAAAAAAAA",
"AAAAAAAAAAAAAAAAAAAAAAAAAAAAAAAAAAAAAAECPDJHLJCJMJBIHCAAAAAAAAAA",
"AAAAAAAAAAAAAAAAAAAAAAAAAAAAAAAAAAAAAAAAAAEDEDMEIFEDECAAAAAAAAAA"};
